# xmcd
#
# Track frame offsets:
#	150
#	12321
#	25000
#	44927
#	59707
#	78111
#	89253
#	104017
#	117968
#	133972
#	150261
#
# Disc length: 2196 seconds
#
# Revision: 1
# Processed by: cddbd v1.4PL0 Copyright (c) Steve Scherf et al.
# Submitted via: audiograbber 1.82.02
#
DISCID=9008920b
DTITLE=The Bum Steers - The Bum Steers
DYEAR=1900
DGENRE=country
TTITLE0=Dancin' on the Levee
TTITLE1=Smokin' and Drinkin'
TTITLE2=Let the Horses Run
TTITLE3=Lorraine
TTITLE4=Hitchhikin' Heart
TTITLE5=Half and Half
TTITLE6=Why, Nona?
TTITLE7=Stronger Than Your Memory
TTITLE8=Normal Guy
TTITLE9=Devil Disguised As Me
TTITLE10=NatKingColePorterWagonerSortOfThing
EXTD=
EXTT0=
EXTT1=
EXTT2=
EXTT3=
EXTT4=
EXTT5=
EXTT6=
EXTT7=
EXTT8=
EXTT9=
EXTT10=
PLAYORDER=
